# xmcd
#
# Track frame offsets: 
#        150
#        20842
#        36484
#        59295
#        79610
#        100532
#        122557
#        135128
#        147705
#        166926
#
# Disc length: 2451 seconds
#
# Revision: 0
# Processed by: cddbd v1.5.2PL0 Copyright (c) Steve Scherf et al.
# Submitted via: ExactAudioCopy v0.95a5
#
DISCID=8009910a
DTITLE=Various Artist - Ruf Records 10th Anniversary Sampler 2004
DYEAR=2004
DGENRE=Blues
TTITLE0=Imperial Crowns-Lil' Death
TTITLE1=Ana Popovic-Comfort To The Soul
TTITLE2=Omar and The Howlers-Boogie Man
TTITLE3=Walter Trout-Jericho Road
TTITLE4=Michael Hill's Blues Mob-Something in the Sky
TTITLE5=Aynsley Lister-Sometimes It Gets 2 Me
TTITLE6=Canned Heat-Struttin' That Stuff
TTITLE7=Candye Kane-I Got A Secret
TTITLE8=Luther Allison-I Wanna Be With You
TTITLE9=Sue Foley-Me and My Chauffer
EXTD=
EXTT0=
EXTT1=
EXTT2=
EXTT3=
EXTT4=
EXTT5=
EXTT6=
EXTT7=
EXTT8=
EXTT9=
PLAYORDER=
